<?xml version="1.0" standalone="no"?>
<!DOCTYPE svg PUBLIC "-//W3C//DTD SVG 20010904//EN"
 "http://www.w3.org/TR/2001/REC-SVG-20010904/DTD/svg10.dtd">
<svg version="1.0" xmlns="http://www.w3.org/2000/svg"
 width="1153.000000pt" height="1153.000000pt" viewBox="0 0 1153.000000 1153.000000"
 preserveAspectRatio="xMidYMid meet">
<metadata>
Created by potrace 1.16, written by Peter Selinger 2001-2019
</metadata>
<g transform="translate(0.000000,1153.000000) scale(0.100000,-0.100000)"
fill="#4154B6" stroke="none">
<path d="M2558 6893 c-49 -52 -79 -115 -85 -182 -5 -42 -13 -64 -35 -89 -124
-143 -137 -227 -138 -877 0 -718 26 -844 204 -979 112 -86 244 -121 446 -120
157 0 227 15 340 72 95 47 200 147 234 223 36 79 56 210 63 413 l6 178 -234
-7 c-129 -4 -236 -9 -239 -12 -2 -2 -7 -67 -11 -145 -14 -252 -33 -319 -104
-352 -76 -36 -151 4 -175 94 -19 70 -29 292 -29 630 -1 491 16 630 80 685 63
53 176 17 199 -63 11 -39 26 -161 36 -294 l6 -78 235 0 236 0 -6 168 c-3 93
-13 198 -22 237 -17 75 -56 168 -83 198 -11 12 -19 45 -23 96 -8 87 -30 140
-86 202 l-36 40 -76 -75 -76 -74 -65 14 c-76 16 -275 18 -339 3 l-45 -10 -71
71 -71 70 -36 -37z"/>
<path d="M5024 6426 c-3 -8 -4 -366 -2 -797 l3 -784 28 -57 c15 -31 43 -68 62
-83 72 -54 94 -58 324 -63 l215 -4 -28 32 c-98 117 -116 245 -116 833 l0 427
65 0 65 0 0 150 0 150 -65 0 -65 0 0 105 0 105 -240 0 c-196 0 -242 -3 -246
-14z"/>
<path d="M4170 6250 c-182 -25 -340 -133 -390 -266 -11 -30 -24 -94 -30 -142
-12 -106 -13 -392 -2 -392 5 0 105 45 223 100 l214 99 6 142 c6 133 7 143 29
161 33 27 78 20 104 -15 19 -25 21 -42 21 -154 l0 -125 -33 -27 c-17 -15 -101
-56 -185 -91 -353 -146 -372 -167 -384 -420 -6 -133 7 -275 32 -333 23 -56 60
-92 124 -121 115 -51 227 -56 336 -15 60 23 85 24 111 4 15 -12 64 -14 258
-15 l239 0 -6 588 c-6 607 -12 708 -48 793 -22 51 -112 145 -166 172 -94 49
-312 76 -453 57z m179 -1113 c-4 -229 -7 -237 -70 -237 -75 0 -95 53 -87 229
6 123 18 149 87 184 30 15 59 27 64 27 5 0 8 -83 6 -203z"/>
<path d="M6125 6254 c-218 -30 -347 -107 -389 -232 -45 -131 -40 -341 11 -455
42 -93 90 -131 401 -312 73 -43 141 -89 149 -102 25 -37 24 -204 0 -231 -40
-44 -106 -30 -129 26 -5 15 -13 73 -17 130 l-6 104 -205 109 c-113 60 -208
109 -212 109 -15 0 -9 -401 7 -473 28 -132 81 -198 208 -257 97 -46 208 -64
357 -57 191 8 322 63 392 162 18 25 37 44 43 41 340 -143 547 -192 864 -203
481 -17 1043 108 1331 295 74 48 179 156 217 223 89 156 93 294 14 459 -92
192 -210 300 -397 362 -302 99 -616 -11 -852 -299 -27 -34 -53 -76 -57 -93
-16 -71 62 -199 134 -221 62 -19 99 0 169 85 131 159 265 230 433 229 126 -1
239 -50 302 -131 81 -104 -25 -272 -237 -376 -112 -54 -204 -86 -366 -125
-232 -55 -360 -72 -600 -76 -277 -5 -519 34 -738 119 -71 27 -166 70 -179 80
-1 1 -7 32 -13 70 -25 155 -104 238 -340 356 -136 68 -231 131 -252 168 -27
45 -25 170 3 206 25 32 75 35 110 7 22 -18 24 -28 27 -130 l4 -112 201 -102
c111 -56 206 -103 210 -106 5 -2 7 106 5 240 -3 232 -5 246 -26 287 -55 103
-157 175 -293 206 -67 16 -233 27 -284 20z"/>
</g>
</svg>
